<?xml version="1.0" standalone="no"?>
<!DOCTYPE svg PUBLIC "-//W3C//DTD SVG 1.1//EN" "http://www.w3.org/Graphics/SVG/1.1/DTD/svg11.dtd" >
<svg xmlns="http://www.w3.org/2000/svg">
<metadata></metadata>
<defs>
<font id="cornerstoneregular" horiz-adv-x="590" >
<font-face units-per-em="1024" ascent="819" descent="-205" />
<missing-glyph horiz-adv-x="500" />
<glyph horiz-adv-x="0" />
<glyph horiz-adv-x="0" />
<glyph unicode="&#xd;" horiz-adv-x="0" />
<glyph unicode=" " />
<glyph unicode="!" horiz-adv-x="295" d="M0 737h147v-516h-147v193v323zM0 147h147v-147h-147v55v92z" />
<glyph unicode="&#x22;" horiz-adv-x="516" d="M0 737h147v-295h-147v111v184zM221 737h148v-295h-148v295z" />
<glyph unicode="#" horiz-adv-x="959" d="M655 439q-9 -47 -27 -142h152q-9 -49 -28 -147h-153l-30 -150h-150q10 50 30 151h-145q-10 -51 -30 -151h-150q10 50 30 151h-154q10 49 29 148h153q9 47 28 141h-153q10 49 29 148h153q9 50 29 149h151l-30 -150h145q9 50 29 150h151l-30 -150h154q-10 -49 -29 -148 h-154zM505 439h-145l-27 -141h144q9 47 28 141z" />
<glyph unicode="$" d="M295 516v73h-148v-147h222q30 0 52 -22q21 -21 21 -52v-295q0 -30 -21 -52q-22 -21 -52 -21h-74v-74h-148v74h-73q-31 0 -52 21q-22 22 -22 52v148h147v-74h148v148h-221q-31 0 -52 21q-22 22 -22 52v123v172q0 31 22 52q21 22 52 22h73v74h148v-74h74q30 0 52 -22 q21 -21 21 -52v-147h-147z" />
<glyph unicode="%" horiz-adv-x="885" d="M645 737q-95 -184 -381 -737h-172q95 184 381 737h172zM221 442h-147q-31 0 -52 22q-22 21 -22 52v61v87q0 30 22 52q21 21 52 21h147q31 0 52 -21q22 -22 22 -52v-76v-72q0 -31 -22 -52q-21 -22 -52 -22zM147 516h74v74v74h-74h-73v-31v-43v-74h73zM737 221v-147 q0 -31 -21 -52q-22 -22 -52 -22h-148q-31 0 -52 22q-22 21 -22 52v147q0 31 22 52q21 22 52 22h148q30 0 52 -22q21 -21 21 -52zM664 221h-74h-74v-74v-73h74h74v73v74z" />
<glyph unicode="&#x26;" horiz-adv-x="664" d="M442 295v-148h74v-147h-74q-30 0 -52 22q-21 21 -21 52q0 -31 -22 -52q-21 -22 -52 -22h-221q-31 0 -52 22q-22 21 -22 52v221q0 31 22 52q21 22 52 22q-31 0 -52 21q-22 22 -22 52v92v130q0 30 22 52q21 21 52 21h221v-147h-148v-148h148v74h147v-74h74v-147h-74z M295 295h-148v-148h148v26v122z" />
<glyph unicode="'" horiz-adv-x="295" d="M0 737h147v-295h-147v111v184z" />
<glyph unicode="(" horiz-adv-x="369" d="M147 590v-443h74v-147h-74h-73q-31 0 -52 22q-22 21 -22 52v222v152v216q0 30 22 52q21 21 52 21h73h74v-147h-74z" />
<glyph unicode=")" horiz-adv-x="369" d="M74 147v443h-74v61v86h74h73q31 0 53 -21q21 -22 21 -52v-293v-297q0 -31 -21 -52q-22 -22 -53 -22h-73h-74v147h74z" />
<glyph unicode="*" horiz-adv-x="516" d="M369 608q-28 -6 -110 -24q24 15 94 60q-19 20 -78 78q-15 -24 -60 -94q8 36 25 109h-111q8 -36 25 -109q-21 31 -61 94l-78 -78q32 -20 95 -60q-37 8 -110 24v-45v-65q37 8 110 24q-32 -20 -95 -60l78 -78q20 31 61 94q-9 -36 -25 -109h111q-9 36 -25 109q20 -31 60 -94 l78 78q-31 20 -94 60q37 -8 110 -24v110z" />
<glyph unicode="+" d="M442 442h-147v148h-148v-148h-147v-61v-86h147v-148h148v148h147v147z" />
<glyph unicode="," horiz-adv-x="295" d="M0 147v-54v-93h63q-15 -14 -63 -55v-92l147 147v74v73h-147z" />
<glyph unicode="-" d="M0 442h442v-147h-442v61v86z" />
<glyph unicode="." horiz-adv-x="295" d="M0 0h147v147h-147v-54v-93z" />
<glyph unicode="/" horiz-adv-x="701" d="M172 0q95 184 381 737h-172q-95 -184 -381 -737h172z" />
<glyph unicode="0" d="M442 664v-590q0 -31 -21 -52q-22 -22 -52 -22h-295q-31 0 -52 22q-22 21 -22 52v222v152v216q0 30 22 52q21 21 52 21h295q30 0 52 -21q21 -22 21 -52zM147 147h148v29v414h-148v-221v-222z" />
<glyph unicode="1" horiz-adv-x="369" d="M221 664v-664h-147v590h-74v61v86h147q31 0 53 -21q21 -22 21 -52z" />
<glyph unicode="2" d="M147 295v-148h295v-147h-442v74v73v92v130q0 30 22 52q21 21 52 21h221v148h-148v-55h-147v129q0 30 22 52q21 21 52 21h295q30 0 52 -21q21 -22 21 -52v-295q0 -31 -21 -53q-22 -21 -52 -21h-222z" />
<glyph unicode="3" d="M369 369q30 0 52 -22q21 -21 21 -52v-221q0 -31 -21 -52q-22 -22 -52 -22h-295q-31 0 -52 22q-22 21 -22 52v53v76h147v-56h148v148h-148v147h148v148h-148v-55h-147v129q0 30 22 52q21 21 52 21h295q30 0 52 -21q21 -22 21 -52v-222q0 -30 -21 -52q-22 -21 -52 -21z" />
<glyph unicode="4" d="M442 737v-737h-147v295h-221q-31 0 -52 21q-22 22 -22 53v153v215h147v-295h148v295h147z" />
<glyph unicode="5" d="M147 590v-148h222q30 0 52 -21q21 -22 21 -52v-295q0 -26 -15 -46q-16 -20 -40 -26v-2h-313q-31 0 -52 22q-22 21 -22 52v147h147v-74h148v148h-148h-73h-74v123v172v92v55h442v-147h-295z" />
<glyph unicode="6" d="M295 516v74h-148v-148h222q30 0 52 -21q21 -22 21 -52v-295q0 -31 -21 -52q-22 -22 -52 -22h-295q-31 0 -52 22q-22 21 -22 52v222v152v216q0 30 22 52q21 21 52 21h295q30 0 52 -21q21 -22 21 -52v-148h-147zM147 295v-148h148v26v122h-148z" />
<glyph unicode="7" d="M313 737h-28h-285v-55v-92h227q-57 -148 -227 -590h158q95 246 284 737h-129z" />
<glyph unicode="8" d="M369 369q30 0 52 -22q21 -21 21 -52v-221q0 -31 -21 -52q-22 -22 -52 -22h-295q-31 0 -52 22q-22 21 -22 52v221q0 31 22 52q21 22 52 22q-31 0 -52 21q-22 22 -22 52v92v130q0 30 22 52q21 21 52 21h295q30 0 52 -21q21 -22 21 -52v-222q0 -30 -21 -52q-22 -21 -52 -21z M295 295h-148v-148h148v26v122zM295 442v26v122h-148v-148h148z" />
<glyph unicode="9" d="M147 221v-74h148v148h-221q-31 0 -52 21q-22 22 -22 53v123v172q0 30 22 52q21 21 52 21h295q30 0 52 -21q21 -22 21 -52v-590q0 -31 -21 -52q-22 -22 -52 -22h-295q-31 0 -52 22q-22 21 -22 52v147h147zM295 442v26v122h-148v-148h148z" />
<glyph unicode=":" horiz-adv-x="295" d="M0 147h147v-147h-147v61v86zM0 516h147v-147h-147v61v86z" />
<glyph unicode=";" horiz-adv-x="295" d="M0 0h63q-15 -14 -63 -55v-93q49 50 147 148v74v73h-147v-61v-86zM0 516h147v-147h-147v61v86z" />
<glyph unicode="&#x3c;" horiz-adv-x="516" d="M0 455v-64v-108q92 -48 369 -191v172q-51 26 -203 105q67 34 203 104v172q-123 -63 -369 -190z" />
<glyph unicode="=" d="M0 552h442v-147h-442v61v86zM0 331h442v-147h-442v61v86z" />
<glyph unicode="&#x3e;" horiz-adv-x="516" d="M369 283v172q-93 47 -369 190v-172q51 -26 203 -104q-68 -35 -203 -105v-71v-101q123 64 369 191z" />
<glyph unicode="?" d="M147 147h148v-111v-36h-148v147zM442 664v-222q0 -15 -5 -28q-6 -14 -16 -24l-126 -126v-43h-148v74q0 15 6 29q6 13 16 23l126 126v117h-148v-74h-147v61v87q0 30 22 52q21 21 52 21h295q30 0 52 -21q21 -22 21 -52z" />
<glyph unicode="A" d="M442 0h-147v295h-148v-295h-147v250v172v242q0 30 22 52q21 21 52 21h295q30 0 52 -21q21 -22 21 -52v-664zM295 442v26v122h-148v-148h148z" />
<glyph unicode="B" d="M369 369q30 0 52 -22q21 -21 21 -52v-221q0 -31 -21 -52q-22 -22 -52 -22h-222h-147v147v148v147v62v86v147h147h222q30 0 52 -21q21 -22 21 -52v-222q0 -30 -21 -52q-22 -21 -52 -21zM147 442h148v26v122h-148v-148zM147 147h148v26v122h-148v-148z" />
<glyph unicode="C" d="M295 516v74h-148v-443h148v74h147v-147q0 -31 -21 -52q-22 -22 -52 -22h-295q-31 0 -52 22q-22 21 -22 52v222v152v216q0 30 22 52q21 21 52 21h295q30 0 52 -21q21 -22 21 -52v-148h-147z" />
<glyph unicode="D" d="M442 664v-590q0 -31 -21 -52q-22 -22 -52 -22h-222h-73h-74v307v430h129h18h222q30 0 52 -21q21 -22 21 -52zM147 147h148v29v414h-148v-221v-222z" />
<glyph unicode="E" d="M442 590v147h-295h-147v-147v-148v-147v-148v-61v-86h147h295v147h-295v148h222v147h-222v148h295z" />
<glyph unicode="F" d="M147 147v0v148h222v147h-222v148h295v147h-295h-147v-147v-62v-86v-147v-148v-147h147v0v147z" />
<glyph unicode="G" d="M295 516v74h-148v-443h148v148h-74v147h221v-147v-221q0 -31 -21 -52q-22 -22 -52 -22h-295q-31 0 -52 22q-22 21 -22 52v222v152v216q0 30 22 52q21 21 52 21h295q30 0 52 -21q21 -22 21 -52v-148h-147z" />
<glyph unicode="H" d="M295 737v-295h-148v295h-147v-295v-147v-111v-184h147v295h148v-295h147v295v147v295h-147z" />
<glyph unicode="I" horiz-adv-x="295" d="M0 737h147v-553v-184h-147v276v461z" />
<glyph unicode="J" d="M442 737v-663q0 -31 -21 -52q-22 -22 -52 -22h-295q-31 0 -52 22q-22 21 -22 52v61v86h147v-74h148v590h147z" />
<glyph unicode="K" horiz-adv-x="613" d="M442 369v-369h-147v295h-148v-295h-147v307v430h147v-295h32q40 99 120 295h166q-46 -98 -138 -295h42q30 0 52 -21q21 -22 21 -52z" />
<glyph unicode="L" d="M147 147v590h-147v-276v-461h37h110h295v147h-295z" />
<glyph unicode="M" horiz-adv-x="885" d="M737 664v-664h-147v590h-148v-590h-147v590h-148v-590h-147v250v172v242q0 30 22 52q21 21 52 21h221q31 0 52 -21q22 -22 22 -52q0 30 21 52q22 21 52 21h222q30 0 52 -21q21 -22 21 -52z" />
<glyph unicode="N" d="M442 664v-664h-147v590h-148v-590h-147v307v430h147h222q30 0 52 -21q21 -22 21 -52z" />
<glyph unicode="O" d="M442 664v-590q0 -31 -21 -52q-22 -22 -52 -22h-295q-31 0 -52 22q-22 21 -22 52v222v152v216q0 30 22 52q21 21 52 21h295q30 0 52 -21q21 -22 21 -52zM147 147h148v29v414h-148v-221v-222z" />
<glyph unicode="P" d="M442 664v-295q0 -31 -21 -53q-22 -21 -52 -21h-222v-295h-147v123v172v147v148v147h147h222q30 0 52 -21q21 -22 21 -52zM147 442h148v26v122h-148v-148z" />
<glyph unicode="Q" d="M393 4q16 -26 47 -78h-172q-14 25 -44 74h-150q-31 0 -52 22q-22 21 -22 52v222v152v216q0 30 22 52q21 21 52 21h295q30 0 52 -21q21 -22 21 -52v-590q0 -24 -13 -43q-14 -19 -36 -27zM147 147h148v29v414h-148v-221v-222z" />
<glyph unicode="R" d="M369 369q30 0 52 -22q21 -21 21 -52v-295h-147v295h-148v-295h-147v295v147v123v172h147h222q30 0 52 -21q21 -22 21 -52v-222q0 -30 -21 -52q-22 -21 -52 -21zM295 442v26v122h-148v-148h148z" />
<glyph unicode="S" d="M295 516v74h-148v-148h222q30 0 52 -21q21 -22 21 -52v-295q0 -31 -21 -52q-22 -22 -52 -22h-295q-31 0 -52 22q-22 21 -22 52v147h147v-74h148v148h-221q-31 0 -52 21q-22 22 -22 53v123v172q0 30 22 52q21 21 52 21h295q30 0 52 -21q21 -22 21 -52v-148h-147z" />
<glyph unicode="T" d="M442 737h-442v-55v-92h147v-590h148v590h147v147z" />
<glyph unicode="U" d="M442 737v-663q0 -31 -21 -52q-22 -22 -52 -22h-295q-31 0 -52 22q-22 21 -22 52v276v387h147v-590h148v590h147z" />
<glyph unicode="V" horiz-adv-x="659" d="M-20 737h165q28 -133 111 -534q28 133 111 534h165q-50 -184 -202 -737h-148q-50 184 -202 737z" />
<glyph unicode="W" horiz-adv-x="885" d="M0 74v276v387h147v-590h148v590h147v-590h148v590h147v-663q0 -31 -21 -52q-22 -22 -52 -22h-222q-30 0 -52 22q-21 21 -21 52q0 -31 -22 -52q-21 -22 -52 -22h-221q-31 0 -52 22q-22 21 -22 52z" />
<glyph unicode="X" horiz-adv-x="659" d="M339 369q48 92 193 368h-165q-28 -60 -111 -239q-28 60 -111 239h-165q48 -92 193 -368v0q-64 -123 -193 -369h165l111 240l111 -240h165q-64 123 -193 369v0z" />
<glyph unicode="Y" horiz-adv-x="659" d="M367 737q-28 -60 -111 -239q-28 60 -111 239h-165q50 -101 202 -405v-332h148v332q67 135 202 405h-165z" />
<glyph unicode="Z" d="M0 737v-55v-92h269q-67 -111 -269 -443v0v0v-17v-130h442v147h-269q90 148 269 443v0v0v17v130h-442z" />
<glyph unicode="a" d="M442 0h-147v295h-148v-295h-147v250v172v242q0 30 22 52q21 21 52 21h295q30 0 52 -21q21 -22 21 -52v-664zM295 442v26v122h-148v-148h148z" />
<glyph unicode="b" d="M369 369q30 0 52 -22q21 -21 21 -52v-221q0 -31 -21 -52q-22 -22 -52 -22h-222h-147v147v148v147v62v86v147h147h222q30 0 52 -21q21 -22 21 -52v-222q0 -30 -21 -52q-22 -21 -52 -21zM147 442h148v26v122h-148v-148zM147 147h148v26v122h-148v-148z" />
<glyph unicode="c" d="M295 516v74h-148v-443h148v74h147v-147q0 -31 -21 -52q-22 -22 -52 -22h-295q-31 0 -52 22q-22 21 -22 52v222v152v216q0 30 22 52q21 21 52 21h295q30 0 52 -21q21 -22 21 -52v-148h-147z" />
<glyph unicode="d" horiz-adv-x="574" d="M442 664v-590q0 -31 -21 -52q-22 -22 -52 -22h-222h-73h-74v307v430h129h18h222q30 0 52 -21q21 -22 21 -52zM147 147h148v29v414h-148v-221v-222z" />
<glyph unicode="e" d="M442 590v147h-295h-147v-147v-148v-147v-61v-87v-147h147h295v147h-295v148h222v147h-222v148h295z" />
<glyph unicode="f" d="M147 147v0v148h222v147h-222v148h295v147h-295h-147v-147v-62v-86v-147v-148v-147h147v0v147z" />
<glyph unicode="g" d="M295 516v74h-148v-443h148v148h-74v147h221v-147v-221q0 -31 -21 -52q-22 -22 -52 -22h-295q-31 0 -52 22q-22 21 -22 52v222v152v216q0 30 22 52q21 21 52 21h295q30 0 52 -21q21 -22 21 -52v-148h-147z" />
<glyph unicode="h" d="M295 737v-295h-148v295h-147v-295v-147v-123v-172h147v295h148v-295h147v295v147v295h-147z" />
<glyph unicode="i" horiz-adv-x="295" d="M0 737h147v-553v-184h-147v307v430z" />
<glyph unicode="j" d="M442 737v-663q0 -31 -21 -52q-22 -22 -52 -22h-295q-31 0 -52 22q-22 21 -22 52v61v86h147v-74h148v590h147z" />
<glyph unicode="k" horiz-adv-x="613" d="M442 369v-369h-147v295h-148v-295h-147v307v430h147v-295h32q40 99 120 295h166q-46 -98 -138 -295h42q30 0 52 -21q21 -22 21 -52z" />
<glyph unicode="l" d="M147 147v590h-147v-276v-461h37h110h295v147h-295z" />
<glyph unicode="m" horiz-adv-x="885" d="M737 664v-664h-147v590h-148v-590h-147v590h-148v-590h-147v250v172v242q0 30 22 52q21 21 52 21h221q31 0 52 -21q22 -22 22 -52q0 30 21 52q22 21 52 21h222q30 0 52 -21q21 -22 21 -52z" />
<glyph unicode="n" d="M442 664v-664h-147v590h-148v-590h-147v307v430h147h222q30 0 52 -21q21 -22 21 -52z" />
<glyph unicode="o" d="M442 664v-590q0 -31 -21 -52q-22 -22 -52 -22h-295q-31 0 -52 22q-22 21 -22 52v222v152v216q0 30 22 52q21 21 52 21h295q30 0 52 -21q21 -22 21 -52zM147 147h148v29v414h-148v-221v-222z" />
<glyph unicode="p" d="M442 664v-295q0 -31 -21 -53q-22 -21 -52 -21h-222v-295h-147v123v172v147v148v147h147h222q30 0 52 -21q21 -22 21 -52zM147 442h148v26v122h-148v-148z" />
<glyph unicode="q" d="M393 4q16 -26 47 -78h-172q-14 25 -44 74h-150q-31 0 -52 22q-22 21 -22 52v222v152v216q0 30 22 52q21 21 52 21h295q30 0 52 -21q21 -22 21 -52v-590q0 -24 -13 -43q-14 -19 -36 -27zM147 147h148v29v414h-148v-221v-222z" />
<glyph unicode="r" d="M369 369q30 0 52 -22q21 -21 21 -52v-295h-147v295h-148v-295h-147v295v147v123v172h147h222q30 0 52 -21q21 -22 21 -52v-222q0 -30 -21 -52q-22 -21 -52 -21zM295 442v26v122h-148v-148h148z" />
<glyph unicode="s" d="M295 516v74h-148v-148h222q30 0 52 -21q21 -22 21 -52v-295q0 -31 -21 -52q-22 -22 -52 -22h-295q-31 0 -52 22q-22 21 -22 52v147h147v-74h148v148h-221q-31 0 -52 21q-22 22 -22 53v123v172q0 30 22 52q21 21 52 21h295q30 0 52 -21q21 -22 21 -52v-148h-147z" />
<glyph unicode="t" d="M442 737h-442v-55v-92h147v-590h148v590h147v147z" />
<glyph unicode="u" d="M442 737v-663q0 -31 -21 -52q-22 -22 -52 -22h-295q-31 0 -52 22q-22 21 -22 52v276v387h147v-590h148v590h147z" />
<glyph unicode="v" horiz-adv-x="659" d="M-20 737h165q28 -133 111 -534q28 133 111 534h165q-50 -184 -202 -737h-148q-67 246 -202 737z" />
<glyph unicode="w" horiz-adv-x="885" d="M0 74v276v387h147v-590h148v590h147v-590h148v590h147v-663q0 -31 -21 -52q-22 -22 -52 -22h-222q-30 0 -52 22q-21 21 -21 52q0 -31 -22 -52q-21 -22 -52 -22h-221q-31 0 -52 22q-22 21 -22 52z" />
<glyph unicode="x" horiz-adv-x="659" d="M339 369q48 92 193 368h-165q-28 -60 -111 -239q-28 60 -111 239h-165q48 -92 193 -368v0q-64 -123 -193 -369h165l111 240l111 -240h165q-64 123 -193 369v0z" />
<glyph unicode="y" horiz-adv-x="659" d="M367 737q-28 -60 -111 -239q-28 60 -111 239h-165q50 -101 202 -405v-332h148v332q67 135 202 405h-165z" />
<glyph unicode="z" d="M0 737v-147h269q-67 -111 -269 -443v0v0v-17v-54v-76h442v147h-269q90 148 269 443v0v0v17v130h-442z" />
<glyph unicode="&#xa0;" />
<glyph unicode="&#xad;" d="M0 442h442v-147h-442v61v86z" />
<glyph unicode="&#x2000;" horiz-adv-x="405" />
<glyph unicode="&#x2001;" horiz-adv-x="811" />
<glyph unicode="&#x2002;" horiz-adv-x="405" />
<glyph unicode="&#x2003;" horiz-adv-x="811" />
<glyph unicode="&#x2004;" horiz-adv-x="270" />
<glyph unicode="&#x2005;" horiz-adv-x="202" />
<glyph unicode="&#x2006;" horiz-adv-x="135" />
<glyph unicode="&#x2007;" horiz-adv-x="135" />
<glyph unicode="&#x2008;" horiz-adv-x="101" />
<glyph unicode="&#x2009;" horiz-adv-x="162" />
<glyph unicode="&#x200a;" horiz-adv-x="45" />
<glyph unicode="&#x2010;" d="M0 442h442v-147h-442v61v86z" />
<glyph unicode="&#x2011;" d="M0 442h442v-147h-442v61v86z" />
<glyph unicode="&#x2012;" d="M0 442h442v-147h-442v61v86z" />
<glyph unicode="&#x2013;" d="M0 442h442v-147h-442v55v92z" />
<glyph unicode="&#x2014;" d="M0 442h442v-147h-442v55v92z" />
<glyph unicode="&#x2019;" horiz-adv-x="295" d="M0 737v-55v-92h63q-15 -14 -63 -55v-93q37 37 147 148v74v73h-147z" />
<glyph unicode="&#x201c;" d="M442 560h-75q19 17 75 67v110l-177 -177v-44v-44v-89h177v177zM177 383v177h-76q26 22 76 67v110l-177 -177v-88v-37v-52h177z" />
<glyph unicode="&#x201d;" d="M0 560h76q-19 -17 -76 -66v-111l177 177v89v88h-177v-74v-103zM265 737v-22v-155h76q-25 -22 -76 -66v-111l177 177v89v88h-177z" />
<glyph unicode="&#x202f;" horiz-adv-x="162" />
<glyph unicode="&#x205f;" horiz-adv-x="202" />
<glyph unicode="&#x25fc;" horiz-adv-x="735" d="M0 735h735v-735h-735v735z" />
</font>
</defs>
</svg>
